<?xml version="1.0" standalone="no"?>
<!DOCTYPE svg PUBLIC "-//W3C//DTD SVG 20010904//EN"
 "http://www.w3.org/TR/2001/REC-SVG-20010904/DTD/svg10.dtd">
<svg version="1.0" xmlns="http://www.w3.org/2000/svg"
 width="900.000000pt" height="360.000000pt" viewBox="0 0 900.000000 360.000000"
 preserveAspectRatio="xMidYMid meet">
<metadata>
Created by potrace 1.10, written by Peter Selinger 2001-2011
</metadata>
<g transform="translate(0.000000,360.000000) scale(0.100000,-0.100000)"
fill="#000000" stroke="none">
<path d="M584 3523 c-3 -10 -9 -25 -14 -34 -5 -9 -12 -38 -15 -65 -4 -27 -12
-55 -18 -62 -10 -12 -24 -99 -34 -207 -4 -52 -10 -65 -48 -107 -24 -27 -46
-62 -50 -77 -14 -66 -55 -33 -55 44 0 19 -4 44 -9 57 -5 13 -12 35 -15 51 -5
22 -12 27 -36 27 -22 0 -30 -5 -30 -18 0 -10 4 -22 9 -28 5 -5 14 -34 19 -64
6 -30 19 -86 28 -125 10 -43 19 -138 23 -250 4 -111 11 -188 19 -202 7 -12 12
-32 12 -44 0 -59 83 -166 173 -223 54 -34 66 -68 74 -214 6 -88 5 -93 -15 -99
-11 -3 -23 -11 -26 -19 -7 -19 3 -44 19 -44 25 0 77 33 84 54 9 23 0 110 -19
199 -14 64 -10 76 23 59 30 -16 146 -32 238 -32 90 0 89 1 90 -103 0 -107 14
-139 68 -156 37 -12 45 -12 52 0 16 25 9 39 -20 45 -34 7 -41 25 -41 102 0 29
-7 66 -15 83 -16 31 -13 49 9 49 18 0 72 27 134 68 37 24 67 56 102 110 28 42
50 83 50 92 0 9 4 20 8 25 15 17 44 104 54 163 5 31 15 125 23 207 7 83 18
199 24 259 6 60 9 118 5 128 -7 23 -26 23 -47 0 -14 -15 -17 -40 -17 -130 0
-103 -12 -150 -26 -105 -10 33 -38 78 -66 108 l-27 30 2 147 c1 107 -1 150
-10 159 -7 7 -13 22 -13 34 0 28 -27 65 -49 65 -19 0 -61 -39 -61 -57 0 -6 -4
-13 -8 -15 -14 -6 -52 -88 -52 -113 0 -13 -4 -27 -10 -30 -5 -3 -10 -15 -10
-26 0 -23 -27 -36 -43 -20 -17 17 -158 14 -181 -4 -40 -30 -96 -13 -96 28 0
10 -7 35 -16 55 -9 21 -23 54 -32 75 -63 145 -103 196 -118 150z m56 -126 c0
-7 18 -50 56 -135 22 -48 15 -74 -22 -84 -16 -4 -52 -19 -78 -33 -27 -14 -51
-23 -54 -20 -3 3 -1 20 6 38 6 17 14 63 18 100 4 37 11 70 15 73 5 3 9 27 9
53 0 26 3 51 7 55 7 7 42 -32 43 -47z m588 -67 c10 -64 14 -210 6 -210 -5 0
-51 28 -69 43 -5 4 -22 16 -37 28 -31 23 -35 41 -13 59 8 7 15 20 15 29 0 14
41 102 66 142 10 17 19 -7 32 -91z m-105 -198 c32 -18 66 -38 74 -45 38 -29
112 -111 126 -140 50 -102 50 -105 44 -241 -4 -77 -13 -150 -22 -176 -35 -101
-74 -188 -92 -208 -7 -7 -13 -17 -13 -21 0 -14 -68 -76 -102 -93 -121 -61
-159 -67 -328 -48 -159 18 -211 41 -310 140 -75 74 -100 158 -107 360 -5 136
6 204 43 280 27 54 89 119 135 142 83 41 130 58 162 58 22 0 37 6 41 15 4 13
29 14 148 12 140 -3 144 -4 201 -35z"/>
<path d="M704 2956 c-12 -30 1 -59 30 -69 23 -8 32 -6 49 11 19 20 19 22 3 46
-19 29 -73 37 -82 12z"/>
<path d="M986 2914 c-22 -21 -20 -37 8 -63 33 -31 76 -21 76 19 0 49 -52 77
-84 44z"/>
<path d="M577 2808 c-17 -13 -17 -14 2 -34 18 -20 113 -40 132 -28 19 11 8 34
-23 48 -52 23 -91 28 -111 14z"/>
<path d="M798 2753 c-17 -19 -14 -32 15 -75 17 -25 17 -27 0 -60 -49 -89 -66
-108 -99 -108 -24 0 -34 17 -34 56 0 13 -4 24 -9 24 -5 0 -12 8 -16 19 -11 37
-149 36 -161 -1 -9 -30 10 -44 39 -29 13 7 41 11 63 9 38 -3 39 -4 45 -47 6
-47 36 -81 69 -81 22 0 60 -45 60 -70 0 -20 46 -54 61 -45 5 4 16 1 24 -5 20
-17 64 17 65 50 1 44 14 55 49 41 27 -12 34 -11 64 8 35 22 47 44 47 94 0 26
7 30 45 30 6 0 29 -3 53 -7 40 -6 42 -5 42 19 0 34 -10 36 -104 27 l-80 -7 -1
-42 c-2 -82 -60 -99 -99 -29 -11 22 -33 54 -48 70 -16 17 -28 35 -28 40 0 5
14 21 32 36 37 31 34 51 -14 80 -41 25 -60 25 -80 3z m87 -223 c23 -36 24 -41
10 -73 -13 -31 -18 -35 -51 -34 -30 1 -39 6 -51 32 -14 30 -14 33 18 78 18 25
36 44 41 41 5 -3 20 -23 33 -44z"/>
<path d="M1050 2741 c-37 -19 -53 -51 -26 -51 19 0 127 28 134 34 2 3 2 12 -1
21 -9 21 -64 19 -107 -4z"/>
<path d="M533 2704 c-9 -24 6 -31 80 -38 55 -5 67 -4 67 8 0 40 -132 67 -147
30z"/>
<path d="M1055 2661 c-52 -11 -33 -26 38 -29 62 -3 68 -1 65 15 -4 20 -50 26
-103 14z"/>
<path d="M7784 3523 c-3 -10 -9 -25 -14 -34 -5 -9 -12 -38 -15 -65 -4 -27 -12
-55 -18 -62 -10 -12 -24 -99 -34 -207 -4 -52 -10 -65 -48 -107 -24 -27 -46
-62 -50 -77 -14 -66 -55 -33 -55 44 0 19 -4 44 -9 57 -5 13 -12 35 -15 51 -5
22 -12 27 -37 27 -28 0 -31 -3 -26 -22 12 -44 39 -154 54 -218 9 -38 18 -141
22 -245 4 -111 11 -188 19 -202 7 -12 12 -32 12 -44 0 -59 83 -166 173 -223
54 -34 64 -64 74 -212 6 -91 5 -95 -15 -101 -35 -9 -42 -63 -8 -63 26 0 77 33
85 54 9 23 0 110 -19 199 -14 64 -10 76 23 59 30 -16 146 -32 238 -32 90 0 89
1 90 -103 0 -107 14 -139 68 -156 37 -12 45 -12 52 0 16 25 9 39 -20 45 -34 7
-41 25 -41 102 0 29 -7 66 -15 83 -16 31 -13 49 9 49 18 0 72 27 134 68 37 24
67 56 102 110 28 42 50 83 50 92 0 9 4 20 8 25 15 17 44 104 54 163 5 31 15
125 23 207 7 83 18 199 24 259 6 60 9 118 5 128 -7 23 -26 23 -47 0 -14 -15
-17 -40 -17 -130 0 -103 -12 -150 -26 -105 -10 33 -38 78 -66 108 l-27 30 2
147 c1 107 -1 150 -10 159 -7 7 -13 22 -13 34 0 28 -27 65 -49 65 -19 0 -61
-39 -61 -57 0 -6 -4 -13 -8 -15 -14 -6 -52 -88 -52 -113 0 -13 -4 -27 -10 -30
-5 -3 -10 -15 -10 -26 0 -23 -27 -36 -43 -20 -17 17 -158 14 -181 -4 -40 -30
-96 -13 -96 28 0 10 -7 35 -16 55 -9 21 -23 54 -32 76 -62 144 -103 196 -118
149z m56 -126 c0 -7 18 -50 56 -135 22 -48 15 -74 -22 -84 -16 -4 -52 -19 -78
-33 -27 -14 -51 -23 -54 -20 -3 3 -1 20 6 38 6 17 14 63 18 100 4 37 11 70 15
73 5 3 9 27 9 53 0 26 3 51 7 55 7 7 42 -32 43 -47z m588 -67 c10 -64 14 -210
6 -210 -5 0 -51 28 -69 43 -5 4 -22 16 -37 28 -31 23 -35 41 -13 59 8 7 15 20
15 29 0 14 41 102 66 142 10 17 19 -7 32 -91z m-105 -198 c32 -18 66 -38 74
-45 38 -29 112 -111 126 -140 50 -102 50 -105 44 -241 -6 -125 -16 -174 -52
-253 -8 -17 -15 -36 -15 -41 0 -13 -31 -72 -47 -90 -7 -7 -13 -17 -13 -21 0
-14 -68 -76 -102 -93 -121 -61 -159 -67 -328 -48 -159 18 -211 41 -310 140
-75 74 -100 158 -107 360 -5 136 6 204 43 280 27 54 89 119 135 142 83 41 130
58 162 58 22 0 37 6 41 15 4 13 29 14 148 12 140 -3 144 -4 201 -35z"/>
<path d="M7904 2956 c-12 -30 1 -59 30 -69 23 -8 32 -6 49 11 19 20 19 22 3
46 -19 29 -73 37 -82 12z"/>
<path d="M8186 2914 c-22 -21 -20 -37 8 -63 33 -31 76 -21 76 19 0 49 -52 77
-84 44z"/>
<path d="M7777 2808 c-17 -13 -17 -14 2 -34 18 -20 113 -40 132 -28 19 11 8
34 -23 48 -52 23 -91 28 -111 14z"/>
<path d="M7998 2753 c-17 -19 -14 -32 15 -75 17 -25 17 -27 0 -60 -49 -89 -66
-108 -99 -108 -23 0 -34 17 -34 53 -1 52 -57 81 -138 70 -29 -4 -43 -11 -48
-25 -9 -30 10 -44 39 -29 13 7 41 11 63 9 38 -3 39 -4 45 -47 6 -47 36 -81 69
-81 22 0 60 -45 60 -70 0 -20 46 -54 61 -45 5 4 16 1 24 -5 20 -17 64 17 65
50 1 44 14 55 49 41 27 -12 34 -11 64 8 35 22 47 44 47 94 0 26 7 30 45 30 6
0 29 -3 53 -7 40 -6 42 -5 42 18 0 32 -18 37 -110 28 l-74 -7 -1 -42 c-2 -82
-60 -99 -99 -29 -11 22 -33 54 -48 70 -16 17 -28 35 -28 40 0 5 14 21 32 36
37 31 34 51 -14 80 -41 25 -60 25 -80 3z m87 -223 c23 -36 24 -41 10 -73 -13
-31 -18 -35 -51 -34 -30 1 -39 6 -51 32 -14 30 -14 33 18 78 18 25 36 44 41
41 5 -3 20 -23 33 -44z"/>
<path d="M8250 2741 c-37 -19 -53 -51 -26 -51 19 0 127 28 134 34 2 3 2 12 -1
21 -9 21 -64 19 -107 -4z"/>
<path d="M7733 2704 c-9 -24 6 -31 80 -38 55 -5 67 -4 67 8 0 40 -132 67 -147
30z"/>
<path d="M8262 2661 c-57 -11 -40 -26 31 -29 62 -3 68 -1 65 15 -4 20 -40 25
-96 14z"/>
<path d="M2384 3483 c-3 -10 -9 -25 -14 -34 -5 -9 -12 -38 -15 -65 -4 -27 -12
-55 -18 -62 -9 -11 -14 -44 -36 -212 -7 -57 -13 -70 -49 -107 -22 -23 -43 -55
-47 -72 -5 -26 -31 -49 -42 -38 -2 2 -7 33 -12 68 -19 132 -33 162 -73 151
-14 -3 -18 -11 -14 -26 20 -76 40 -159 50 -211 7 -33 15 -67 19 -75 3 -8 7
-95 9 -192 2 -123 7 -181 16 -190 6 -6 12 -23 12 -36 0 -62 93 -184 173 -227
47 -25 54 -48 28 -81 -23 -30 -27 -76 -8 -96 6 -7 21 -31 32 -52 18 -35 18
-39 2 -47 -19 -11 -23 -59 -5 -59 23 0 88 34 88 47 0 7 -18 42 -40 78 -22 36
-40 68 -40 72 0 21 36 83 46 79 6 -2 32 -8 58 -11 25 -4 49 -12 52 -17 3 -5
65 -8 137 -7 131 1 132 1 151 -24 14 -19 16 -30 9 -39 -19 -25 -34 -107 -23
-128 14 -26 89 -47 101 -28 16 24 9 38 -21 44 -35 7 -40 33 -15 80 20 39 19
56 -5 87 l-20 25 66 32 c66 33 122 80 159 135 33 48 85 164 85 187 0 8 4 18
10 24 13 13 29 113 45 284 7 80 18 201 25 269 12 130 9 148 -28 137 -27 -9
-32 -33 -32 -153 0 -95 -12 -140 -26 -96 -11 35 -37 78 -65 108 l-28 30 2 147
c1 106 -2 151 -11 160 -6 6 -12 22 -12 34 0 13 -11 36 -24 51 l-24 28 -31 -29
c-17 -17 -31 -35 -31 -42 0 -7 -4 -14 -8 -16 -14 -5 -52 -88 -52 -111 0 -13
-4 -27 -9 -32 -5 -6 -11 -19 -13 -29 -3 -18 -11 -19 -116 -17 -119 3 -154 -7
-131 -35 8 -10 40 -14 115 -14 58 0 106 -4 109 -10 3 -5 15 -10 27 -10 58 0
217 -131 254 -210 9 -19 22 -44 28 -55 14 -28 20 -209 7 -275 -16 -89 -34
-150 -43 -150 -4 0 -8 -7 -8 -16 0 -35 -53 -127 -98 -171 -58 -57 -64 -62
-122 -92 -41 -22 -56 -24 -175 -23 -191 2 -269 21 -352 85 -135 104 -161 170
-170 417 -6 174 21 276 94 355 34 37 117 89 158 99 16 4 33 12 36 18 4 5 19
10 35 10 76 1 96 25 54 63 -11 10 -20 27 -20 38 0 10 -7 35 -16 55 -9 21 -23
54 -32 76 -62 144 -103 196 -118 149z m56 -126 c0 -9 35 -92 50 -118 5 -9 12
-33 15 -53 6 -30 4 -37 -11 -42 -29 -9 -66 -24 -97 -40 -43 -21 -61 -18 -52 9
4 12 12 57 19 99 6 42 14 80 19 84 4 4 7 28 7 54 0 26 3 50 7 54 7 7 42 -32
43 -47z m582 -33 c10 -64 18 -244 11 -244 -2 0 -34 19 -69 42 -64 42 -77 65
-50 87 8 7 17 24 20 39 11 45 59 133 70 129 6 -2 14 -26 18 -53z"/>
<path d="M5984 3483 c-3 -10 -9 -25 -14 -34 -5 -9 -12 -38 -15 -65 -4 -27 -12
-55 -18 -62 -9 -11 -14 -44 -36 -212 -7 -57 -13 -70 -49 -107 -22 -23 -43 -55
-47 -72 -5 -26 -31 -49 -42 -38 -2 2 -7 33 -12 68 -11 78 -26 138 -38 150 -5
5 -19 6 -32 2 -17 -4 -21 -11 -17 -27 20 -76 40 -159 50 -211 7 -33 15 -67 19
-75 3 -8 7 -95 9 -192 2 -123 7 -181 16 -190 6 -6 12 -23 12 -36 0 -60 78
-165 164 -220 63 -41 68 -55 36 -92 -23 -26 -26 -72 -7 -92 6 -7 21 -31 32
-52 18 -35 18 -39 2 -47 -19 -11 -23 -59 -5 -59 23 0 88 34 88 47 0 7 -18 42
-40 78 -22 36 -40 68 -40 72 0 3 8 24 17 45 11 25 22 37 31 33 8 -3 32 -8 55
-11 23 -4 47 -11 54 -16 6 -5 67 -9 135 -8 67 1 128 1 134 1 16 -1 36 -51 26
-65 -19 -23 -33 -106 -22 -126 14 -26 89 -47 101 -28 16 24 9 38 -21 44 -35 7
-40 33 -15 80 20 39 19 56 -5 87 l-20 25 66 32 c90 44 153 109 196 200 72 157
81 193 103 430 7 80 19 201 25 269 12 130 8 148 -28 137 -27 -9 -32 -33 -32
-153 0 -95 -12 -140 -26 -96 -11 35 -37 78 -65 108 l-28 30 2 147 c1 106 -2
151 -11 160 -6 6 -12 22 -12 34 0 13 -11 36 -24 51 l-24 28 -31 -29 c-17 -17
-31 -35 -31 -42 0 -7 -4 -14 -8 -16 -14 -5 -52 -88 -52 -111 0 -13 -4 -27 -9
-32 -5 -6 -11 -19 -13 -29 -3 -18 -11 -19 -116 -17 -119 3 -154 -7 -131 -35 8
-10 40 -14 115 -14 58 0 106 -4 109 -10 3 -5 15 -10 27 -10 58 0 217 -131 254
-210 9 -19 22 -44 28 -55 14 -28 20 -209 7 -275 -16 -89 -34 -150 -43 -150 -4
0 -8 -7 -8 -16 0 -35 -54 -129 -103 -178 -29 -29 -77 -65 -107 -81 -53 -27
-61 -28 -185 -27 -191 2 -269 21 -352 85 -135 104 -161 170 -170 417 -6 174
21 276 94 355 34 37 117 89 158 99 16 4 33 12 36 18 4 5 19 10 35 10 76 1 96
25 54 63 -11 10 -20 27 -20 38 0 10 -7 35 -16 55 -9 21 -23 54 -32 76 -62 144
-103 196 -118 149z m56 -126 c0 -9 35 -92 50 -118 5 -9 12 -33 15 -53 6 -30 4
-37 -11 -42 -29 -9 -66 -24 -97 -40 -43 -21 -61 -18 -52 9 4 12 12 57 19 99 6
42 14 80 19 84 4 4 7 28 7 54 0 26 3 50 7 54 7 7 42 -32 43 -47z m582 -33 c10
-64 18 -244 11 -244 -2 0 -34 19 -69 42 -64 42 -77 65 -50 87 8 7 17 24 20 39
11 45 59 133 70 129 6 -2 14 -26 18 -53z"/>
<path d="M4175 3413 c-9 -21 -19 -58 -22 -83 -3 -25 -10 -51 -16 -58 -9 -11
-16 -54 -35 -207 -7 -52 -13 -66 -49 -103 -22 -24 -45 -58 -50 -75 -5 -18 -16
-33 -25 -35 -13 -2 -18 7 -23 45 -3 26 -10 64 -15 83 -5 19 -12 47 -15 63 -4
21 -11 27 -31 27 -29 0 -42 -25 -26 -50 5 -9 14 -39 17 -66 4 -27 11 -56 16
-65 19 -37 32 -144 38 -316 4 -124 10 -186 19 -195 6 -6 12 -25 12 -41 0 -58
73 -157 155 -212 31 -20 59 -43 62 -50 2 -8 -10 -32 -28 -54 -35 -45 -35 -47
23 -103 23 -22 25 -28 13 -38 -18 -15 -20 -60 -3 -60 6 0 29 8 50 17 44 19 49
43 15 70 -12 10 -32 31 -45 47 l-22 29 22 36 c12 20 22 37 23 39 1 1 31 -7 66
-19 56 -18 84 -20 213 -17 145 3 149 2 157 -19 6 -16 1 -31 -17 -58 -25 -38
-31 -79 -13 -91 28 -17 79 -22 90 -8 14 18 -5 44 -32 44 -17 0 -17 1 -1 32 9
18 22 38 29 45 14 15 6 50 -13 57 -25 10 -15 24 33 48 26 13 68 44 93 69 69
71 85 96 118 184 13 33 28 68 33 78 6 10 13 42 15 70 3 29 8 59 12 67 3 8 11
80 18 160 7 80 17 195 23 255 12 118 9 155 -14 155 -33 0 -45 -41 -45 -152 0
-59 -4 -109 -9 -112 -5 -4 -19 13 -30 36 -12 24 -35 59 -52 78 l-31 35 5 105
c5 100 1 147 -22 234 -18 73 -65 77 -110 10 -17 -25 -31 -51 -31 -58 0 -8 -7
-19 -15 -26 -8 -7 -15 -25 -15 -40 0 -15 -7 -41 -16 -58 -13 -28 -19 -31 -42
-25 -15 4 -62 8 -105 8 -70 -1 -80 -3 -96 -24 -17 -22 -19 -23 -49 -7 -23 12
-32 23 -32 42 0 27 -11 55 -66 170 -19 39 -34 75 -34 81 0 13 -33 43 -48 43
-7 0 -19 -17 -27 -37z m74 -122 c11 -25 21 -50 21 -55 1 -6 9 -29 20 -51 27
-55 25 -74 -7 -86 -16 -6 -41 -18 -58 -26 -16 -9 -43 -19 -59 -24 -27 -8 -28
-7 -21 19 3 15 12 59 18 99 7 39 15 75 20 79 4 4 7 31 7 59 0 83 14 79 59 -14z
m574 -7 c4 -27 9 -95 12 -151 l4 -103 -37 25 c-20 14 -44 28 -52 32 -33 15
-52 41 -45 62 3 12 10 21 15 21 4 0 11 18 15 40 4 22 11 40 15 40 5 0 11 10
15 23 11 39 28 68 39 64 6 -2 14 -26 19 -53z m-203 -206 c53 -8 92 -22 133
-46 54 -33 147 -116 147 -133 0 -4 7 -14 14 -22 8 -8 24 -41 35 -73 38 -107
20 -336 -34 -440 -8 -16 -15 -35 -15 -42 0 -20 -64 -115 -103 -153 -32 -30
-67 -52 -147 -89 -32 -14 -262 -8 -335 9 -53 12 -112 37 -131 55 -6 6 -22 18
-34 26 -115 77 -153 183 -153 430 -1 138 10 225 29 239 5 3 18 23 28 43 31 62
86 104 191 148 28 11 57 24 65 29 8 4 22 4 31 -2 12 -7 21 -5 35 9 24 24 134
29 244 12z"/>
<path d="M4310 2876 c-15 -19 -9 -56 11 -69 9 -5 28 -7 42 -3 22 5 27 12 27
36 0 24 -6 33 -26 40 -34 13 -39 13 -54 -4z"/>
<path d="M4598 2843 c-10 -2 -18 -8 -18 -13 0 -5 -3 -15 -6 -23 -8 -22 36 -58
66 -55 35 4 40 52 9 79 -12 10 -25 18 -28 18 -3 -1 -14 -3 -23 -6z"/>
<path d="M4173 2723 c-30 -12 -10 -33 45 -48 31 -9 62 -18 68 -20 18 -5 37 12
31 27 -12 32 -103 58 -144 41z"/>
<path d="M4396 2669 c-11 -17 -12 -27 -4 -45 6 -13 15 -24 19 -24 31 0 -4 -98
-55 -153 -38 -41 -76 -30 -76 21 0 13 -9 37 -21 53 -19 27 -25 29 -82 29 -69
0 -93 -10 -84 -34 5 -13 21 -16 77 -16 l70 0 0 -34 c0 -41 33 -86 64 -86 27 0
52 -25 61 -62 10 -38 35 -57 82 -59 47 -3 73 13 73 45 0 36 13 45 64 43 41 -2
51 2 72 26 15 18 24 41 24 61 0 41 12 46 83 39 58 -6 79 6 57 32 -13 16 -76
19 -144 7 -39 -7 -40 -8 -41 -51 -1 -30 -7 -48 -20 -57 -32 -24 -52 -16 -75
28 -12 24 -35 58 -51 76 -16 18 -29 37 -29 42 0 5 14 20 31 33 39 30 33 57
-17 86 -44 26 -59 26 -78 0z m95 -233 c13 -27 16 -43 9 -50 -5 -5 -10 -18 -10
-27 0 -23 -19 -34 -32 -21 -7 7 -17 8 -29 1 -15 -7 -21 -3 -35 26 -16 34 -16
36 8 68 13 17 28 40 31 51 6 15 10 16 23 5 8 -7 24 -31 35 -53z"/>
<path d="M4649 2663 c-18 -4 -46 -50 -36 -59 3 -3 20 -1 39 5 18 6 50 13 71
16 38 6 50 28 21 39 -17 7 -69 6 -95 -1z"/>
<path d="M4147 2632 c-10 -2 -17 -11 -15 -20 2 -13 19 -19 68 -23 36 -4 68 -5
73 -2 15 9 6 33 -15 37 -44 9 -93 13 -111 8z"/>
<path d="M4643 2573 c-7 -2 -13 -11 -13 -18 0 -16 108 -31 122 -17 23 23 0 42
-49 41 -26 0 -54 -3 -60 -6z"/>
<path d="M2512 2928 c-7 -7 -12 -24 -12 -38 0 -49 51 -68 83 -32 23 25 21 37
-9 61 -30 24 -45 26 -62 9z"/>
<path d="M6112 2928 c-7 -7 -12 -24 -12 -38 0 -49 51 -68 83 -32 23 25 21 37
-9 61 -30 24 -45 26 -62 9z"/>
<path d="M2775 2861 c-12 -39 23 -69 72 -59 22 4 29 43 13 64 -18 21 -77 18
-85 -5z"/>
<path d="M6377 2866 c-15 -40 21 -73 70 -64 22 4 29 43 13 64 -16 18 -76 18
-83 0z"/>
<path d="M2374 2755 c-14 -10 -16 -17 -8 -25 12 -12 133 -31 147 -23 11 7 8
29 -5 40 -23 18 -114 23 -134 8z"/>
<path d="M5975 2753 c-24 -23 -7 -34 66 -43 69 -8 79 -6 79 14 0 22 -22 33
-77 39 -40 5 -56 2 -68 -10z"/>
<path d="M2603 2723 c-20 -7 -15 -57 7 -83 11 -13 20 -24 20 -26 0 -9 -46 -91
-57 -102 -7 -7 -13 -16 -13 -20 0 -4 -11 -12 -25 -19 -30 -13 -55 5 -55 39 0
12 -11 36 -26 55 -21 27 -32 33 -63 33 -66 0 -126 -43 -90 -65 6 -4 30 -2 54
5 55 15 85 2 85 -39 0 -34 35 -81 60 -81 34 0 49 -12 61 -47 17 -53 42 -73 92
-73 46 0 59 12 72 68 6 28 10 32 28 25 63 -22 113 10 125 79 9 54 29 66 75 45
42 -20 49 -21 65 -5 29 29 -34 68 -113 68 -50 0 -60 -10 -68 -69 -7 -53 -39
-91 -63 -76 -9 6 -26 28 -38 50 -11 21 -33 53 -48 69 -16 17 -28 33 -28 36 0
11 16 28 38 39 28 15 28 51 -1 72 -25 18 -76 30 -94 22z m80 -232 l27 -48 -19
-38 c-11 -23 -21 -33 -25 -26 -4 6 -19 10 -32 9 -18 -2 -29 5 -41 23 -16 26
-15 29 16 78 18 28 36 51 40 51 5 0 20 -22 34 -49z"/>
<path d="M6203 2723 c-20 -7 -15 -57 7 -83 11 -13 20 -24 20 -26 0 -9 -46 -91
-57 -102 -7 -7 -13 -16 -13 -20 0 -4 -11 -12 -25 -19 -30 -13 -55 5 -55 39 0
12 -11 36 -26 55 -21 27 -32 33 -63 33 -66 0 -126 -43 -90 -65 6 -4 30 -2 54
5 55 15 85 2 85 -39 0 -35 35 -81 61 -81 34 0 56 -18 62 -49 10 -47 40 -71 90
-71 46 0 59 12 72 68 6 28 10 32 28 25 63 -22 113 10 125 79 9 49 31 67 64 51
42 -20 60 -23 74 -12 33 27 -31 69 -106 69 -49 0 -67 -17 -73 -69 -7 -53 -39
-91 -63 -76 -9 6 -26 28 -38 50 -11 21 -33 53 -48 69 -16 17 -28 33 -28 36 0
11 16 28 38 39 28 15 28 51 -1 72 -25 18 -76 30 -94 22z m80 -232 l27 -48 -19
-38 c-11 -23 -21 -33 -25 -26 -4 6 -19 10 -32 9 -18 -2 -29 5 -41 23 -16 26
-15 29 16 78 18 28 36 51 40 51 5 0 20 -22 34 -49z"/>
<path d="M2885 2711 c-6 -5 -23 -11 -40 -13 -19 -2 -31 -9 -33 -20 -3 -16 5
-18 57 -18 60 0 97 18 88 44 -5 14 -59 20 -72 7z"/>
<path d="M6485 2711 c-6 -5 -23 -11 -40 -13 -19 -2 -31 -9 -33 -20 -3 -16 5
-18 57 -18 60 0 97 18 88 44 -5 14 -59 20 -72 7z"/>
<path d="M2337 2663 c-4 -3 -7 -12 -7 -20 0 -10 19 -13 75 -13 57 0 75 3 75
14 0 8 -7 17 -16 20 -21 8 -119 8 -127 -1z"/>
<path d="M5937 2663 c-4 -3 -7 -12 -7 -20 0 -10 19 -13 75 -13 57 0 75 3 75
14 0 8 -7 17 -16 20 -21 8 -119 8 -127 -1z"/>
<path d="M2834 2619 c-12 -20 13 -30 67 -27 42 2 55 7 57 21 3 15 -5 17 -57
17 -33 0 -63 -5 -67 -11z"/>
<path d="M6434 2619 c-12 -20 13 -30 67 -27 42 2 55 7 57 21 3 15 -5 17 -57
17 -33 0 -63 -5 -67 -11z"/>
<path d="M5984 1723 c-3 -10 -9 -25 -14 -34 -5 -9 -12 -38 -15 -65 -4 -27 -12
-55 -18 -62 -10 -12 -24 -99 -34 -207 -4 -52 -10 -65 -48 -107 -24 -27 -46
-62 -50 -77 -14 -66 -55 -33 -55 44 0 19 -4 44 -9 57 -5 13 -12 35 -15 51 -5
22 -12 27 -37 27 -28 0 -31 -3 -26 -22 12 -44 39 -154 54 -218 9 -38 18 -141
22 -245 4 -111 11 -188 19 -202 7 -12 12 -32 12 -44 0 -59 83 -166 173 -223
54 -34 64 -64 74 -212 6 -91 5 -95 -15 -101 -16 -4 -22 -13 -22 -34 0 -18 5
-29 13 -29 27 0 78 32 86 54 9 23 0 110 -19 199 -14 64 -10 76 23 59 30 -16
146 -32 238 -32 89 0 89 0 89 -98 0 -117 19 -155 80 -163 51 -7 71 35 23 47
-38 10 -43 19 -43 92 0 37 -6 75 -15 93 -16 31 -13 49 9 49 18 0 72 27 134 68
37 24 67 56 102 110 28 42 50 83 50 92 0 9 4 20 8 25 15 17 44 104 53 163 6
31 16 125 24 207 7 83 18 199 24 259 6 60 9 118 5 128 -7 23 -26 23 -47 0 -14
-15 -17 -40 -17 -130 0 -103 -12 -150 -26 -105 -10 33 -38 78 -66 108 l-27 30
2 147 c1 107 -1 150 -10 159 -7 7 -13 22 -13 34 0 28 -27 65 -49 65 -19 0 -61
-39 -61 -57 0 -6 -4 -13 -8 -15 -14 -6 -52 -88 -52 -113 0 -13 -4 -27 -10 -30
-5 -3 -10 -17 -10 -31 0 -17 -5 -24 -19 -24 -11 0 -23 5 -26 10 -10 16 -157
12 -179 -5 -40 -30 -96 -13 -96 28 0 10 -7 35 -16 55 -9 21 -23 54 -32 75 -63
145 -103 196 -118 150z m56 -126 c0 -7 18 -50 56 -135 19 -42 15 -76 -11 -80
-11 -2 -39 -13 -62 -23 -23 -10 -46 -19 -52 -19 -5 0 -11 -6 -14 -12 -2 -7 -8
-10 -13 -5 -4 4 -3 22 4 40 6 17 14 63 18 100 4 37 11 70 15 73 5 3 9 27 9 53
0 26 3 51 7 55 7 7 42 -32 43 -47z m590 -69 c6 -37 9 -80 6 -96 -4 -16 -3 -47
3 -70 5 -26 5 -42 0 -42 -9 0 -49 23 -74 43 -5 4 -22 16 -37 28 -31 23 -35 41
-13 59 8 7 15 20 15 29 0 14 41 102 66 142 10 17 18 -5 34 -93z m-107 -196
c32 -18 66 -38 74 -45 38 -29 112 -111 126 -140 50 -102 50 -105 44 -241 -4
-77 -13 -150 -22 -176 -35 -101 -74 -188 -92 -208 -7 -7 -13 -17 -13 -21 0
-14 -68 -76 -102 -93 -121 -61 -159 -67 -328 -48 -159 18 -211 41 -310 140
-75 74 -100 158 -107 360 -5 136 6 204 43 280 27 54 89 119 135 142 83 41 130
58 162 58 22 0 37 6 41 15 4 13 29 14 148 12 140 -3 144 -4 201 -35z"/>
<path d="M6104 1156 c-12 -30 1 -59 30 -69 23 -8 32 -6 49 11 19 20 19 22 3
46 -19 29 -73 37 -82 12z"/>
<path d="M6386 1114 c-22 -21 -20 -37 8 -63 33 -31 76 -21 76 19 0 49 -52 77
-84 44z"/>
<path d="M5977 1008 c-17 -13 -17 -14 2 -34 18 -20 113 -40 132 -28 19 11 8
34 -23 48 -52 23 -91 28 -111 14z"/>
<path d="M6198 953 c-17 -19 -14 -32 15 -75 17 -25 17 -27 0 -60 -49 -89 -66
-108 -99 -108 -23 0 -34 17 -34 53 -1 52 -57 81 -138 70 -29 -4 -43 -11 -48
-25 -9 -30 10 -44 39 -29 13 7 41 11 63 9 38 -3 39 -4 45 -47 6 -47 36 -81 69
-81 22 0 60 -45 60 -70 0 -20 46 -54 61 -45 5 4 16 1 24 -5 20 -17 64 17 65
50 1 44 14 55 49 41 27 -12 34 -11 64 8 35 22 47 44 47 94 0 26 7 30 45 30 6
0 29 -3 53 -7 40 -6 42 -5 42 18 0 32 -18 37 -110 28 l-74 -7 -1 -42 c-2 -82
-60 -99 -99 -29 -11 22 -33 54 -48 70 -16 17 -28 35 -28 40 0 5 14 21 32 36
37 31 34 51 -14 80 -41 25 -60 25 -80 3z m87 -223 c23 -36 24 -41 10 -73 -13
-31 -18 -35 -51 -34 -30 1 -39 6 -51 32 -14 30 -14 33 18 78 18 25 36 44 41
41 5 -3 20 -23 33 -44z"/>
<path d="M6450 941 c-37 -19 -53 -51 -26 -51 19 0 127 28 134 34 2 3 2 12 -1
21 -9 21 -64 19 -107 -4z"/>
<path d="M5933 904 c-9 -24 6 -31 80 -38 55 -5 67 -4 67 8 0 40 -132 67 -147
30z"/>
<path d="M6455 861 c-52 -11 -33 -26 38 -29 62 -3 68 -1 65 15 -4 20 -50 26
-103 14z"/>
<path d="M584 1683 c-3 -10 -9 -25 -14 -34 -5 -9 -12 -38 -15 -65 -4 -27 -12
-55 -18 -62 -9 -11 -14 -44 -36 -212 -7 -57 -13 -70 -49 -107 -22 -23 -43 -55
-47 -72 -5 -26 -31 -49 -42 -38 -2 2 -7 33 -12 68 -19 132 -33 162 -73 151
-14 -3 -18 -11 -14 -26 20 -76 40 -159 50 -211 7 -33 15 -67 19 -75 3 -8 7
-95 9 -192 2 -123 7 -181 16 -190 6 -6 12 -23 12 -36 0 -60 78 -165 164 -220
63 -41 68 -55 36 -92 -23 -26 -26 -72 -7 -92 6 -7 21 -31 32 -52 18 -35 18
-39 2 -47 -19 -11 -23 -59 -5 -59 23 0 88 34 88 47 0 7 -18 42 -40 78 -22 36
-40 68 -40 72 0 3 8 24 17 45 11 25 22 37 31 33 8 -3 32 -8 55 -11 23 -4 47
-11 54 -16 6 -5 68 -8 138 -7 117 1 129 0 148 -20 17 -17 19 -24 9 -43 -6 -13
-16 -42 -22 -65 -13 -52 -1 -80 38 -89 15 -3 32 -7 38 -9 14 -4 34 15 34 32 0
8 -13 16 -30 19 -35 7 -40 33 -15 80 20 39 19 56 -5 87 l-20 25 66 32 c66 33
122 80 159 135 33 48 85 164 85 187 0 8 4 18 10 24 13 13 29 112 45 284 7 80
19 201 25 269 12 130 8 148 -28 137 -27 -9 -32 -33 -32 -153 0 -95 -12 -140
-26 -96 -11 35 -37 78 -65 108 l-28 30 2 147 c1 107 -1 150 -10 159 -7 7 -13
24 -13 36 0 13 -12 35 -26 50 l-25 25 -30 -28 c-16 -15 -29 -33 -29 -40 0 -7
-4 -14 -8 -16 -14 -5 -52 -88 -52 -111 0 -13 -4 -27 -9 -32 -5 -6 -11 -19 -13
-29 -3 -18 -11 -19 -116 -17 -119 3 -154 -7 -131 -35 8 -10 40 -14 115 -14 58
0 106 -4 109 -10 3 -5 15 -10 27 -10 58 0 217 -131 254 -210 9 -19 22 -44 28
-55 14 -28 20 -209 7 -275 -16 -89 -34 -150 -43 -150 -4 0 -8 -7 -8 -16 0 -35
-53 -127 -98 -171 -58 -57 -64 -62 -122 -93 -41 -21 -56 -23 -175 -22 -190 2
-269 21 -352 85 -135 104 -161 170 -170 417 -6 174 21 276 94 355 34 37 117
89 158 99 16 4 33 12 36 18 4 5 19 10 35 10 76 1 96 25 54 63 -11 10 -20 27
-20 38 0 10 -7 35 -16 55 -9 21 -23 54 -32 75 -63 145 -103 196 -118 150z m56
-126 c0 -9 35 -92 50 -118 5 -9 12 -33 15 -53 6 -30 4 -37 -11 -42 -29 -9 -66
-24 -97 -40 -43 -21 -61 -18 -52 9 4 12 12 57 19 99 6 42 14 80 19 84 4 4 7
28 7 54 0 26 3 50 7 54 7 7 42 -32 43 -47z m582 -33 c10 -64 18 -244 11 -244
-2 0 -34 19 -69 42 -64 42 -77 65 -50 87 8 7 17 24 20 39 11 45 59 133 70 129
6 -2 14 -26 18 -53z"/>
<path d="M4184 1683 c-3 -10 -9 -25 -14 -34 -5 -9 -12 -38 -15 -65 -4 -27 -12
-55 -18 -62 -9 -11 -14 -44 -36 -212 -7 -57 -13 -70 -49 -107 -22 -23 -43 -55
-47 -72 -5 -26 -31 -49 -42 -38 -2 2 -7 33 -12 68 -19 132 -33 162 -73 151
-14 -3 -18 -11 -14 -26 20 -76 40 -159 50 -211 7 -33 15 -67 19 -75 3 -8 7
-95 9 -192 2 -123 7 -181 16 -190 6 -6 12 -23 12 -36 0 -60 78 -165 164 -220
63 -41 68 -55 36 -92 -23 -26 -26 -72 -7 -92 6 -7 21 -31 32 -52 18 -35 18
-39 2 -47 -19 -11 -23 -59 -5 -59 23 0 88 34 88 47 0 7 -18 42 -40 78 -22 36
-40 68 -40 72 0 3 8 24 17 45 11 25 22 37 31 33 8 -3 32 -8 55 -11 23 -4 47
-11 54 -16 6 -5 69 -8 140 -7 127 1 128 1 147 -24 14 -19 16 -30 9 -39 -6 -7
-15 -34 -22 -61 -14 -57 -3 -84 37 -93 15 -3 32 -7 38 -9 14 -4 34 15 34 32 0
8 -13 16 -30 19 -35 7 -40 33 -15 80 20 39 19 56 -5 87 l-20 25 66 32 c36 18
83 49 103 69 37 35 111 149 111 169 0 5 7 23 15 38 8 16 15 36 15 44 0 9 4 20
10 26 13 13 29 112 45 284 7 80 18 199 25 264 11 126 10 146 -14 146 -37 0
-46 -28 -46 -145 0 -105 -12 -154 -26 -108 -11 35 -37 78 -65 108 l-28 30 2
147 c1 107 -1 150 -10 159 -7 7 -13 23 -13 35 0 13 -11 36 -24 51 l-24 28 -31
-29 c-17 -17 -31 -35 -31 -42 0 -7 -4 -14 -8 -16 -14 -5 -52 -88 -52 -111 0
-13 -4 -27 -9 -32 -5 -6 -11 -19 -13 -29 -3 -18 -11 -19 -116 -17 -119 3 -154
-7 -131 -35 8 -10 40 -14 115 -14 58 0 106 -4 109 -10 3 -5 15 -10 27 -10 58
0 217 -131 254 -210 9 -19 22 -44 28 -55 14 -28 20 -209 7 -275 -16 -89 -34
-150 -43 -150 -4 0 -8 -7 -8 -16 0 -35 -53 -127 -98 -171 -58 -57 -64 -62
-122 -93 -41 -21 -56 -23 -175 -22 -190 2 -269 21 -352 85 -135 104 -161 170
-170 417 -6 174 21 276 94 355 34 37 117 89 158 99 16 4 33 12 36 18 4 5 19
10 35 10 76 1 96 25 54 63 -11 10 -20 27 -20 38 0 10 -7 35 -16 55 -9 21 -23
54 -32 75 -63 145 -103 196 -118 150z m56 -126 c0 -9 35 -92 50 -118 5 -9 12
-33 15 -53 6 -30 4 -37 -11 -42 -29 -9 -66 -24 -97 -40 -43 -21 -61 -18 -52 9
4 12 12 57 19 99 6 42 14 80 19 84 4 4 7 28 7 54 0 26 3 50 7 54 7 7 42 -32
43 -47z m582 -33 c10 -64 18 -244 11 -244 -2 0 -34 19 -69 42 -64 42 -77 65
-50 87 8 7 17 24 20 39 11 45 59 133 70 129 6 -2 14 -26 18 -53z"/>
<path d="M2375 1613 c-9 -21 -19 -58 -22 -83 -3 -25 -10 -51 -16 -58 -9 -11
-16 -54 -35 -207 -7 -52 -13 -66 -49 -103 -22 -24 -45 -58 -50 -75 -5 -18 -16
-33 -25 -35 -13 -2 -18 7 -23 45 -3 26 -10 62 -15 79 -6 17 -10 39 -10 50 0
25 -18 44 -42 44 -24 0 -34 -27 -20 -51 6 -10 14 -37 18 -61 3 -24 10 -54 15
-68 21 -56 32 -144 38 -317 4 -124 10 -186 19 -195 6 -6 12 -23 12 -36 0 -62
71 -161 155 -217 31 -20 59 -43 62 -50 2 -8 -10 -32 -28 -54 -35 -45 -35 -47
25 -105 26 -25 28 -29 13 -38 -19 -10 -23 -43 -7 -53 6 -4 28 2 50 11 46 20
51 43 17 71 -12 10 -32 31 -45 47 l-22 29 22 36 c12 20 22 37 23 39 1 1 31 -7
66 -19 56 -18 84 -20 212 -17 132 3 149 1 158 -14 10 -18 -9 -70 -31 -83 -14
-8 -13 -62 1 -71 28 -17 79 -22 90 -8 15 18 -5 44 -32 44 -11 0 -19 5 -19 10
0 6 4 10 9 10 5 0 12 11 15 25 4 14 11 25 16 25 16 0 12 57 -5 64 -26 10 -16
24 32 48 26 13 68 44 93 69 67 67 85 96 118 184 13 33 28 68 33 78 6 10 13 42
15 70 3 29 8 59 12 67 3 8 11 80 18 160 6 80 17 195 23 255 12 118 9 155 -14
155 -33 0 -45 -41 -45 -152 0 -59 -4 -109 -9 -112 -5 -4 -19 13 -30 36 -12 24
-35 59 -52 78 l-31 35 5 105 c5 100 1 147 -22 234 -18 73 -65 77 -110 10 -17
-25 -31 -51 -31 -58 0 -8 -7 -19 -15 -26 -8 -7 -15 -25 -15 -40 0 -15 -7 -41
-16 -58 -13 -28 -19 -31 -42 -25 -15 4 -62 8 -105 8 -70 -1 -80 -3 -96 -24
-17 -22 -19 -23 -49 -7 -23 12 -32 23 -32 42 0 27 -11 55 -66 170 -19 39 -34
75 -34 81 0 13 -33 43 -48 43 -7 0 -19 -17 -27 -37z m74 -122 c11 -25 21 -50
21 -55 1 -6 9 -29 20 -51 27 -55 25 -74 -7 -86 -16 -6 -41 -18 -58 -26 -16 -9
-43 -19 -59 -24 -27 -8 -28 -7 -21 19 3 15 12 59 18 99 7 39 15 75 20 79 4 4
7 31 7 59 0 83 14 79 59 -14z m574 -7 c4 -27 9 -95 12 -151 l4 -103 -37 25
c-20 14 -44 28 -52 32 -33 15 -52 41 -45 62 3 12 10 21 15 21 4 0 11 18 15 40
4 22 11 40 16 40 5 0 9 5 9 11 0 22 33 80 44 76 6 -2 14 -26 19 -53z m-203
-206 c53 -8 92 -22 133 -46 54 -33 147 -116 147 -133 0 -4 7 -14 14 -22 8 -8
24 -41 35 -73 38 -107 20 -336 -34 -440 -8 -16 -15 -35 -15 -42 0 -20 -64
-115 -103 -153 -32 -30 -67 -52 -147 -89 -32 -14 -262 -8 -335 9 -53 12 -112
37 -131 55 -6 6 -22 18 -34 26 -75 50 -119 121 -141 225 -26 124 -11 445 21
445 4 0 11 11 14 25 12 49 137 155 183 155 7 0 13 5 13 10 0 6 8 10 18 10 9 0
28 6 42 13 17 9 30 10 41 4 12 -7 21 -5 35 9 24 24 134 29 244 12z"/>
<path d="M2510 1076 c-15 -19 -9 -56 11 -69 9 -5 28 -7 42 -3 22 5 27 12 27
36 0 24 -6 33 -26 40 -34 13 -39 13 -54 -4z"/>
<path d="M2798 1043 c-10 -2 -18 -8 -18 -13 0 -5 -3 -15 -6 -23 -8 -22 36 -58
66 -55 35 4 40 52 9 79 -12 10 -25 18 -28 18 -3 -1 -14 -3 -23 -6z"/>
<path d="M2373 923 c-30 -12 -10 -33 45 -48 31 -9 62 -18 68 -20 18 -5 37 12
31 27 -12 32 -103 58 -144 41z"/>
<path d="M2596 869 c-11 -17 -12 -27 -4 -45 6 -13 15 -24 19 -24 31 0 -4 -98
-55 -153 -38 -41 -76 -30 -76 21 0 13 -9 37 -21 53 -19 27 -25 29 -82 29 -69
0 -93 -10 -84 -34 5 -13 21 -16 77 -16 l70 0 0 -34 c0 -41 33 -86 64 -86 27 0
52 -25 61 -62 10 -38 35 -57 82 -59 47 -3 73 13 73 45 0 36 13 45 64 43 41 -2
51 2 72 26 15 18 24 41 24 61 0 41 12 46 84 39 47 -5 57 -3 62 12 4 10 1 21
-7 26 -16 10 -88 11 -143 1 -39 -7 -40 -8 -41 -51 -1 -30 -7 -48 -20 -57 -32
-24 -52 -16 -75 28 -12 24 -35 58 -51 76 -16 18 -29 37 -29 42 0 5 14 20 31
33 39 30 33 57 -17 86 -44 26 -59 26 -78 0z m95 -233 c13 -27 16 -43 9 -50 -5
-5 -10 -18 -10 -27 0 -23 -19 -34 -32 -21 -7 7 -17 8 -29 1 -15 -7 -21 -3 -35
26 -16 34 -16 36 8 68 13 17 28 40 31 51 6 15 10 16 23 5 8 -7 24 -31 35 -53z"/>
<path d="M2849 863 c-18 -4 -46 -50 -36 -59 3 -3 20 -1 39 5 18 6 50 13 71 16
38 6 50 28 21 39 -17 7 -69 6 -95 -1z"/>
<path d="M2347 832 c-10 -2 -17 -11 -15 -20 2 -13 19 -19 68 -23 36 -4 68 -5
73 -2 15 9 6 33 -15 37 -44 9 -93 13 -111 8z"/>
<path d="M2843 773 c-7 -2 -13 -11 -13 -18 0 -16 108 -31 122 -17 23 23 0 42
-49 41 -26 0 -54 -3 -60 -6z"/>
<path d="M712 1128 c-15 -15 -15 -61 0 -76 18 -18 53 -15 71 6 23 25 21 37 -9
61 -30 24 -45 26 -62 9z"/>
<path d="M4312 1128 c-7 -7 -12 -24 -12 -38 0 -49 51 -68 83 -32 23 25 21 37
-9 61 -30 24 -45 26 -62 9z"/>
<path d="M975 1061 c-12 -39 23 -69 72 -59 22 4 29 43 13 64 -18 21 -77 18
-85 -5z"/>
<path d="M4575 1061 c-12 -39 23 -69 72 -59 22 4 29 43 13 64 -18 21 -77 18
-85 -5z"/>
<path d="M575 953 c-24 -23 -7 -34 66 -43 69 -8 79 -6 79 14 0 22 -22 33 -77
39 -40 5 -56 2 -68 -10z"/>
<path d="M4174 955 c-14 -10 -16 -17 -8 -25 12 -12 133 -31 147 -23 11 7 8 29
-5 40 -23 18 -114 23 -134 8z"/>
<path d="M803 923 c-20 -7 -15 -57 7 -83 11 -13 20 -24 20 -26 0 -12 -48 -93
-65 -110 -42 -42 -52 -46 -69 -29 -9 9 -16 26 -16 37 0 12 -11 36 -26 55 -21
27 -32 33 -63 33 -66 0 -126 -43 -90 -65 6 -4 30 -2 54 5 55 15 85 2 85 -39 0
-34 35 -81 60 -81 34 0 49 -12 61 -47 17 -53 42 -73 92 -73 46 0 59 12 72 68
6 28 10 32 28 25 63 -22 113 10 125 79 9 49 31 67 64 51 42 -20 60 -23 74 -12
34 28 -31 69 -111 69 -50 0 -60 -10 -68 -69 -7 -53 -39 -91 -63 -76 -9 6 -26
28 -38 50 -11 21 -33 53 -48 69 -16 17 -28 33 -28 36 0 11 16 28 38 39 28 15
28 51 -1 72 -25 18 -76 30 -94 22z m80 -232 l27 -48 -19 -38 c-11 -23 -21 -33
-25 -26 -4 6 -19 10 -32 9 -18 -2 -29 5 -41 23 -16 26 -15 29 16 78 18 28 36
51 40 51 5 0 20 -22 34 -49z"/>
<path d="M4403 923 c-20 -7 -15 -57 7 -83 11 -13 20 -24 20 -26 0 -9 -46 -91
-57 -102 -7 -7 -13 -16 -13 -20 0 -4 -11 -12 -25 -19 -30 -13 -55 5 -55 39 0
12 -11 36 -26 55 -21 27 -32 33 -63 33 -66 0 -126 -43 -90 -65 6 -4 30 -2 54
5 55 15 85 2 85 -39 0 -35 35 -81 61 -81 34 0 56 -18 62 -49 10 -47 40 -71 90
-71 46 0 59 12 72 68 6 28 10 32 28 25 63 -22 113 10 125 79 9 49 31 67 64 51
42 -20 60 -23 74 -12 34 28 -31 69 -111 69 -50 0 -60 -10 -68 -69 -7 -53 -39
-91 -63 -76 -9 6 -26 28 -38 50 -11 21 -33 53 -48 69 -16 17 -28 33 -28 36 0
11 16 28 38 39 12 6 22 20 22 30 0 37 -79 80 -117 64z m80 -232 l27 -48 -19
-38 c-11 -23 -21 -33 -25 -26 -4 6 -19 10 -32 9 -18 -2 -29 5 -41 23 -16 26
-15 29 16 78 18 28 36 51 40 51 5 0 20 -22 34 -49z"/>
<path d="M1085 911 c-6 -5 -23 -11 -40 -13 -19 -2 -31 -9 -33 -20 -3 -16 5
-18 57 -18 60 0 97 18 88 44 -5 14 -59 20 -72 7z"/>
<path d="M4685 911 c-6 -5 -23 -11 -40 -13 -19 -2 -31 -9 -33 -20 -3 -16 5
-18 57 -18 60 0 97 18 88 44 -5 14 -59 20 -72 7z"/>
<path d="M537 863 c-4 -3 -7 -12 -7 -20 0 -10 19 -13 75 -13 57 0 75 3 75 14
0 8 -7 17 -16 20 -21 8 -119 8 -127 -1z"/>
<path d="M4137 863 c-4 -3 -7 -12 -7 -20 0 -10 19 -13 75 -13 57 0 75 3 75 14
0 8 -7 17 -16 20 -21 8 -119 8 -127 -1z"/>
<path d="M1034 819 c-12 -20 13 -30 67 -27 42 2 55 7 57 21 3 15 -5 17 -57 17
-33 0 -63 -5 -67 -11z"/>
<path d="M4634 819 c-12 -20 13 -30 67 -27 42 2 55 7 57 21 3 15 -5 17 -57 17
-33 0 -63 -5 -67 -11z"/>
</g>
</svg>
