<?xml version="1.0" standalone="no"?>
<!DOCTYPE svg PUBLIC "-//W3C//DTD SVG 20010904//EN"
 "http://www.w3.org/TR/2001/REC-SVG-20010904/DTD/svg10.dtd">
<svg version="1.0" xmlns="http://www.w3.org/2000/svg"
 width="248.000000pt" height="300.000000pt" viewBox="0 0 248.000000 300.000000"
 preserveAspectRatio="xMidYMid meet">
<metadata>
Created by potrace 1.10, written by Peter Selinger 2001-2011
</metadata>
<g transform="translate(0.000000,300.000000) scale(0.100000,-0.100000)"
fill="#000000" stroke="none">
<path d="M777 2853 c-14 -23 -89 -370 -122 -563 -9 -52 -19 -107 -22 -121 -3
-15 -30 -53 -60 -84 -57 -61 -89 -116 -117 -202 -10 -29 -21 -55 -26 -58 -5
-3 -13 19 -19 47 -32 156 -76 321 -92 348 -21 33 -36 38 -46 15 -6 -17 80
-444 103 -509 11 -30 13 -67 8 -151 -8 -145 9 -332 46 -479 44 -177 91 -244
265 -371 l100 -73 13 -74 c29 -168 42 -267 42 -324 0 -66 2 -64 -73 -88 -27
-9 -17 -40 13 -44 14 -1 43 8 65 21 38 21 40 25 43 77 4 64 -13 223 -35 328
-8 41 -13 75 -11 77 2 2 46 -7 98 -20 94 -25 200 -35 395 -38 l99 -2 13 -45
c7 -25 18 -110 24 -190 5 -80 14 -149 20 -155 13 -13 88 -35 123 -35 22 0 27
4 22 16 -3 9 -6 17 -6 19 0 2 -22 11 -49 20 l-48 16 -7 61 c-3 33 -6 84 -6
112 0 46 -17 130 -35 177 -5 13 3 20 32 29 124 41 274 135 329 207 34 45 94
138 111 173 33 66 103 274 113 331 6 35 15 82 20 104 5 22 10 76 10 121 0 46
5 85 11 91 7 7 15 73 20 150 5 76 11 151 13 167 3 17 10 99 17 184 10 132 10
155 -3 168 -21 21 -45 8 -52 -29 -9 -50 -36 -345 -36 -396 0 -51 -11 -45 -28
15 -14 47 -68 130 -138 212 -27 31 -48 60 -46 64 1 5 2 93 2 196 1 259 -31
412 -86 420 -46 7 -141 -154 -202 -343 -16 -49 -34 -89 -39 -88 -6 1 -52 8
-102 14 -132 17 -301 -7 -301 -42 0 -7 38 -8 114 -3 134 8 276 -9 276 -33 0
-9 6 -12 18 -9 44 14 221 -94 314 -192 104 -109 152 -202 173 -342 4 -25 9
-54 11 -65 27 -140 -6 -357 -87 -565 -101 -259 -213 -376 -436 -452 -87 -30
-87 -30 -267 -26 -155 4 -196 9 -289 33 -115 29 -167 56 -288 148 -114 85
-162 157 -198 292 -31 118 -41 194 -47 360 -7 165 5 255 50 383 34 99 51 131
97 187 72 87 176 151 354 217 71 26 81 28 91 14 15 -22 34 -20 34 3 0 12 9 21
25 25 33 8 23 26 -15 26 -26 0 -30 5 -40 43 -22 85 -33 115 -98 267 -82 193
-104 234 -130 238 -11 2 -22 0 -25 -5z m55 -135 c73 -145 168 -375 168 -406 0
-4 -23 -13 -51 -19 -28 -7 -99 -35 -157 -63 -58 -28 -106 -49 -108 -48 -1 2 2
48 7 103 10 101 95 485 108 485 4 0 19 -24 33 -52z m973 -63 c12 -41 19 -127
24 -270 4 -115 6 -211 5 -213 -1 -2 -38 21 -82 51 -43 30 -99 65 -123 77 -24
12 -46 24 -48 26 -1 1 13 49 34 106 55 157 144 313 166 291 5 -5 15 -35 24
-68z"/>
<path d="M981 1936 c-31 -37 -2 -106 44 -106 49 0 78 62 44 96 -23 22 -73 28
-88 10z"/>
<path d="M1425 1850 c-24 -26 -9 -62 34 -85 40 -20 71 -3 71 37 0 58 -68 89
-105 48z"/>
<path d="M755 1670 c-12 -20 24 -40 70 -40 22 0 65 -6 95 -14 60 -16 70 -14
54 11 -21 34 -203 69 -219 43z"/>
<path d="M1118 1609 c-30 -17 -22 -64 18 -109 l37 -41 -16 -40 c-47 -120 -118
-211 -174 -225 -46 -12 -56 2 -99 145 -3 10 -8 11 -15 4 -8 -8 -8 -27 0 -65
21 -101 71 -150 132 -129 27 9 28 9 49 -57 21 -65 55 -131 68 -133 4 -1 36 -3
71 -5 56 -3 68 -1 88 18 13 12 23 28 23 36 0 9 7 39 16 68 l17 52 31 -19 c90
-55 177 12 194 149 7 54 9 57 37 60 17 2 63 -2 103 -9 62 -10 75 -10 82 1 13
21 6 26 -60 40 -67 14 -193 8 -216 -11 -15 -12 -9 -33 7 -24 14 9 11 -36 -7
-88 -24 -70 -84 -106 -125 -74 -9 7 -38 48 -64 92 -25 44 -61 96 -79 115 -29
30 -32 39 -25 65 5 18 21 37 39 47 17 10 33 24 36 33 25 64 -102 143 -168 104z
m96 -286 c11 -15 36 -54 54 -87 32 -56 33 -61 19 -90 -8 -17 -20 -44 -26 -59
-15 -38 -41 -46 -59 -19 -18 28 -34 28 -50 1 -18 -28 -36 -12 -62 58 l-20 55
30 34 c16 19 41 57 55 84 14 28 28 50 31 50 3 0 16 -12 28 -27z"/>
<path d="M1541 1574 c-62 -17 -87 -32 -72 -47 6 -6 21 -5 42 2 17 6 46 11 63
11 53 0 106 19 99 35 -7 19 -60 19 -132 -1z"/>
<path d="M708 1523 c-10 -2 -18 -11 -18 -19 0 -11 20 -14 90 -16 50 -1 98 -2
107 -2 33 -2 23 23 -14 33 -38 11 -132 13 -165 4z"/>
<path d="M1522 1453 c-25 -3 -32 -9 -30 -21 3 -14 18 -17 88 -20 84 -2 125 8
105 26 -12 11 -117 21 -163 15z"/>
<path d="M745 1402 c-67 -11 -125 -34 -125 -48 0 -13 6 -15 28 -9 15 5 71 9
125 10 54 1 100 5 103 7 17 18 -82 49 -131 40z"/>
</g>
</svg>
